<svg width="479" height="100" viewBox="0 0 479 100" fill="none" xmlns="http://www.w3.org/2000/svg">
<path d="M115.403 44.4545V36.1818H148.273V44.4545H136.898V74H126.778V44.4545H115.403ZM161.762 74.517C158.734 74.517 156.124 73.9384 153.933 72.7812C151.754 71.6117 150.073 69.9375 148.891 67.7585C147.722 65.5672 147.137 62.9451 147.137 59.892C147.137 56.9621 147.728 54.4015 148.91 52.2102C150.092 50.0189 151.76 48.3139 153.914 47.0952C156.068 45.8764 158.611 45.267 161.54 45.267C163.683 45.267 165.621 45.5994 167.357 46.2642C169.093 46.929 170.576 47.8954 171.808 49.1634C173.039 50.419 173.987 51.9455 174.651 53.7429C175.316 55.5402 175.648 57.5653 175.648 59.8182V62.1818H150.313V56.5682H166.268C166.255 55.7557 166.046 55.0417 165.64 54.4261C165.246 53.7983 164.71 53.312 164.033 52.9673C163.369 52.6103 162.612 52.4318 161.762 52.4318C160.937 52.4318 160.18 52.6103 159.491 52.9673C158.801 53.312 158.247 53.7921 157.829 54.4077C157.423 55.0232 157.207 55.7434 157.183 56.5682V62.625C157.183 63.536 157.373 64.3485 157.755 65.0625C158.137 65.7765 158.684 66.3366 159.398 66.7429C160.112 67.1491 160.974 67.3523 161.984 67.3523C162.685 67.3523 163.326 67.2538 163.904 67.0568C164.495 66.8598 165 66.5767 165.418 66.2074C165.837 65.8258 166.145 65.3703 166.342 64.8409H175.648C175.328 66.8106 174.571 68.5218 173.377 69.9744C172.183 71.4148 170.601 72.535 168.631 73.3352C166.674 74.1231 164.384 74.517 161.762 74.517ZM193.473 74.517C190.395 74.517 187.761 73.9077 185.569 72.6889C183.378 71.4579 181.698 69.7467 180.528 67.5554C179.359 65.3518 178.774 62.7973 178.774 59.892C178.774 56.9867 179.359 54.4384 180.528 52.2472C181.698 50.0436 183.378 48.3324 185.569 47.1136C187.761 45.8826 190.395 45.267 193.473 45.267C196.255 45.267 198.662 45.7718 200.693 46.7812C202.736 47.7784 204.318 49.1941 205.439 51.0284C206.559 52.8504 207.125 54.9924 207.137 57.4545H197.683C197.547 55.965 197.117 54.8324 196.39 54.0568C195.676 53.2689 194.753 52.875 193.62 52.875C192.734 52.875 191.958 53.1335 191.294 53.6506C190.629 54.1553 190.112 54.9247 189.743 55.9588C189.373 56.9806 189.189 58.267 189.189 59.8182C189.189 61.3693 189.373 62.6619 189.743 63.696C190.112 64.7178 190.629 65.4872 191.294 66.0043C191.958 66.509 192.734 66.7614 193.62 66.7614C194.371 66.7614 195.036 66.589 195.615 66.2443C196.193 65.8873 196.661 65.3703 197.018 64.6932C197.387 64.0038 197.609 63.1667 197.683 62.1818H207.137C207.1 64.6809 206.528 66.8598 205.42 68.7188C204.312 70.5653 202.743 71.9934 200.711 73.0028C198.692 74.0123 196.279 74.517 193.473 74.517ZM221.536 58.0455V74H211.343V36.1818H221.167V51.0284H221.462C222.103 49.2187 223.167 47.8092 224.657 46.7997C226.147 45.7779 227.938 45.267 230.031 45.267C232.037 45.267 233.779 45.7225 235.256 46.6335C236.746 47.5445 237.897 48.8002 238.71 50.4006C239.534 52.0009 239.941 53.8352 239.928 55.9034V74H229.735V58.0455C229.747 56.642 229.397 55.5402 228.683 54.7401C227.981 53.9399 226.978 53.5398 225.673 53.5398C224.848 53.5398 224.121 53.7244 223.494 54.0938C222.878 54.4508 222.398 54.9678 222.053 55.6449C221.721 56.3097 221.549 57.1098 221.536 58.0455ZM251.774 74L240.621 36.1818H252.07L257.24 59.4489H257.536L263.666 36.1818H272.678L278.808 59.5227H279.104L284.274 36.1818H295.723L284.57 74H274.746L268.32 52.875H268.024L261.598 74H251.774ZM309.559 74.517C306.481 74.517 303.846 73.9077 301.655 72.6889C299.464 71.4579 297.783 69.7467 296.614 67.5554C295.444 65.3518 294.86 62.7973 294.86 59.892C294.86 56.9867 295.444 54.4384 296.614 52.2472C297.783 50.0436 299.464 48.3324 301.655 47.1136C303.846 45.8826 306.481 45.267 309.559 45.267C312.636 45.267 315.271 45.8826 317.462 47.1136C319.653 48.3324 321.334 50.0436 322.503 52.2472C323.673 54.4384 324.257 56.9867 324.257 59.892C324.257 62.7973 323.673 65.3518 322.503 67.5554C321.334 69.7467 319.653 71.4579 317.462 72.6889C315.271 73.9077 312.636 74.517 309.559 74.517ZM309.632 66.983C310.494 66.983 311.239 66.6937 311.867 66.1151C312.495 65.5365 312.981 64.7116 313.326 63.6406C313.67 62.5696 313.843 61.2955 313.843 59.8182C313.843 58.3286 313.67 57.0545 313.326 55.9957C312.981 54.9247 312.495 54.0999 311.867 53.5213C311.239 52.9427 310.494 52.6534 309.632 52.6534C308.721 52.6534 307.94 52.9427 307.287 53.5213C306.635 54.0999 306.136 54.9247 305.792 55.9957C305.447 57.0545 305.275 58.3286 305.275 59.8182C305.275 61.2955 305.447 62.5696 305.792 63.6406C306.136 64.7116 306.635 65.5365 307.287 66.1151C307.94 66.6937 308.721 66.983 309.632 66.983ZM328.394 74V45.6364H338.292V51.0284H338.587C339.104 49.0341 339.923 47.5753 341.043 46.652C342.176 45.7287 343.499 45.267 345.013 45.267C345.456 45.267 345.893 45.304 346.324 45.3778C346.767 45.4394 347.192 45.5317 347.598 45.6548V54.3523C347.094 54.1799 346.472 54.0507 345.733 53.9645C344.995 53.8783 344.361 53.8352 343.831 53.8352C342.834 53.8352 341.935 54.063 341.135 54.5185C340.347 54.9616 339.726 55.5895 339.27 56.402C338.815 57.2022 338.587 58.1439 338.587 59.2273V74H328.394ZM360.1 67.2784L360.174 55.1648H361.503L368.373 45.6364H379.821L368.299 60.483H365.418L360.1 67.2784ZM350.941 74V36.1818H361.134V74H350.941ZM368.446 74L361.946 62.7727L368.594 55.5341L380.117 74H368.446ZM408.402 54.8693H399.021C398.972 54.2907 398.769 53.7921 398.412 53.3736C398.055 52.955 397.593 52.6349 397.027 52.4134C396.473 52.1795 395.857 52.0625 395.18 52.0625C394.306 52.0625 393.555 52.2225 392.928 52.5426C392.3 52.8627 391.992 53.3182 392.004 53.9091C391.992 54.3277 392.17 54.7154 392.54 55.0724C392.921 55.4295 393.654 55.7064 394.737 55.9034L400.499 56.9375C403.404 57.4669 405.564 58.3594 406.98 59.6151C408.408 60.8584 409.128 62.5265 409.141 64.6193C409.128 66.6383 408.525 68.3925 407.331 69.8821C406.149 71.3594 404.53 72.5043 402.474 73.3168C400.431 74.117 398.098 74.517 395.476 74.517C391.143 74.517 387.751 73.6307 385.301 71.858C382.864 70.0852 381.503 67.7462 381.22 64.8409H391.339C391.475 65.7396 391.918 66.4351 392.669 66.9276C393.432 67.4077 394.393 67.6477 395.55 67.6477C396.485 67.6477 397.255 67.4877 397.858 67.1676C398.473 66.8475 398.787 66.392 398.8 65.8011C398.787 65.2595 398.517 64.8286 397.987 64.5085C397.47 64.1884 396.658 63.9299 395.55 63.733L390.527 62.8466C387.634 62.3419 385.467 61.3816 384.027 59.9659C382.587 58.5502 381.873 56.7282 381.885 54.5C381.873 52.5303 382.39 50.8622 383.436 49.4957C384.495 48.1169 386.003 47.0705 387.96 46.3565C389.93 45.6302 392.263 45.267 394.959 45.267C399.058 45.267 402.29 46.1165 404.653 47.8153C407.029 49.5142 408.279 51.8655 408.402 54.8693Z" fill="#5D87FF"/>
<rect width="100" height="100" rx="8" fill="#5D87FF"/>
<path d="M32.0398 74L20.8864 36.1818H32.3352L37.5057 59.4489H37.8011L43.9318 36.1818H52.9432L59.0739 59.5227H59.3693L64.5398 36.1818H75.9886L64.8352 74H55.0114L48.5852 52.875H48.2898L41.8636 74H32.0398Z" fill="white"/>
</svg>
